<svg version="1.1" id="Layer_1" xmlns="http://www.w3.org/2000/svg" xmlns:xlink="http://www.w3.org/1999/xlink" x="0px" y="0px"
	 width="100%" viewBox="0 0 659 237" enable-background="new 0 0 659 237" xml:space="preserve">
<path fill="#FFFEFF" opacity="1.000000" stroke="none" 
	d="
M457.000000,238.000000 
	C304.709015,238.000000 152.917999,238.000000 1.063504,238.000000 
	C1.063504,159.064407 1.063504,80.128746 1.063504,1.096545 
	C220.666641,1.096545 440.333313,1.096545 659.971558,1.096545 
	C659.971558,80.082016 659.971558,159.041016 659.971558,238.000000 
	C592.462036,238.000000 524.981018,238.000000 457.000000,238.000000 
M313.043060,133.956009 
	C313.043060,133.956009 313.124603,133.937653 312.947205,133.427277 
	C312.644257,133.254730 312.341278,133.082169 312.016418,132.988205 
	C312.016418,132.988205 312.084442,132.943161 311.755737,132.351868 
	C309.572876,131.116135 307.390015,129.880402 305.158081,128.786057 
	C305.158081,128.786057 305.304169,128.753632 304.975311,128.197983 
	C304.056030,127.679459 303.136719,127.160942 302.172943,126.778709 
	C302.172943,126.778709 302.309723,126.735733 302.012451,126.213463 
	C301.342987,125.802559 300.673492,125.391647 300.000977,125.002937 
	C300.000977,125.002937 300.020630,124.990944 299.737549,124.481728 
	C299.169037,123.969620 298.600525,123.457512 297.998749,122.995667 
	C297.998749,122.995667 298.054016,122.971718 297.893402,122.205811 
	C296.471466,118.892677 296.021027,115.199455 299.394897,113.289513 
	C307.344696,108.789108 310.500885,115.512787 314.734131,120.670563 
	C314.727295,116.896416 314.854370,112.455971 312.750610,110.721848 
	C307.828308,106.664398 298.169739,109.104927 293.603821,114.575119 
	C293.603821,114.575119 293.658386,114.638199 293.062775,115.014122 
	C291.198853,118.348450 290.690216,121.699265 292.992767,125.022018 
	C292.992767,125.022018 292.913025,125.035912 292.995544,125.649124 
	C293.565918,126.214722 294.136292,126.780319 294.780701,127.176414 
	C294.780701,127.176414 294.640961,127.297592 294.837769,127.872887 
	C295.462006,128.366928 296.086243,128.860962 296.849884,129.181534 
	C296.849884,129.181534 296.662628,129.301788 296.937439,129.845108 
	C297.626984,130.233871 298.316528,130.622650 299.183563,131.217926 
	C299.183563,131.217926 299.454102,131.187134 299.797699,131.704895 
	C300.177490,131.856537 300.557251,132.008179 300.938385,132.063736 
	C300.938385,132.063736 300.845917,132.089783 301.060364,132.590469 
	C301.376373,132.731888 301.692413,132.873322 302.183624,133.220398 
	C302.183624,133.220398 302.451874,133.188629 302.804810,133.708344 
	C303.196411,133.821518 303.587982,133.934677 303.981781,133.993774 
	C303.981781,133.993774 303.948578,134.036667 304.371277,134.462280 
	C304.917908,134.660049 305.464569,134.857803 306.193665,135.241898 
	C306.193665,135.241898 306.450439,135.196426 306.692108,135.662231 
	C307.139984,135.917770 307.587830,136.173309 308.346527,136.857422 
	C308.509918,136.924057 308.673309,136.990707 309.037018,137.564499 
	C309.337891,137.752380 309.638794,137.940262 309.956665,138.037827 
	C309.956665,138.037827 309.877441,138.084396 310.043152,138.628494 
	C310.401123,139.069839 310.759094,139.511169 311.112549,140.711884 
	C311.264221,141.185760 311.415863,141.659653 311.402344,142.825653 
	C311.172821,144.227097 310.943268,145.628540 310.246826,147.420090 
	C310.163574,147.605026 310.080322,147.789963 309.297852,148.306320 
	C302.850159,152.115707 297.607605,150.612946 294.054108,144.059006 
	C293.359833,142.778549 292.227875,141.735367 291.297821,140.582748 
	C290.698639,140.909134 290.099457,141.235504 289.500275,141.561890 
	C290.680023,144.981216 291.038879,150.606674 293.192749,151.408127 
	C299.776398,153.857880 307.129761,155.145706 313.339905,149.411545 
	C313.339905,149.411545 313.420013,149.390442 313.877808,149.217163 
	C314.164795,149.023605 314.340302,148.756729 314.407990,148.335632 
	C314.407990,148.335632 314.486908,148.353836 315.000488,147.933960 
	C317.576050,143.939758 318.512360,139.937881 315.011810,135.984741 
	C315.011810,135.984741 315.090363,135.959366 314.949371,135.437531 
	C314.653015,135.250076 314.356659,135.062622 314.042908,134.956909 
	C314.042908,134.956909 314.124420,134.938431 313.951447,134.428085 
	C313.654236,134.243439 313.357025,134.058777 313.043060,133.956009 
M367.000000,150.000000 
	C367.000000,150.000000 367.002380,149.994446 367.382446,150.457596 
	C367.927307,150.652252 368.472137,150.846924 369.221741,151.239532 
	C369.221741,151.239532 369.505737,151.218094 370.003571,151.818283 
	C377.562714,154.267410 384.612427,153.985703 391.064362,147.433609 
	C403.376190,135.348053 398.564545,118.863029 387.333618,112.438728 
	C381.396851,106.849632 371.001587,107.939133 363.961823,114.966492 
	C363.961823,114.966492 363.931183,114.862907 363.331787,115.022003 
	C362.871399,115.680107 362.411011,116.338211 361.502594,117.200516 
	C361.275543,117.624390 361.048492,118.048264 360.297577,118.808136 
	C360.162415,119.192398 360.027222,119.576660 359.977722,119.970528 
	C359.977722,119.970528 359.925232,119.902153 359.327759,120.304306 
	C355.552917,128.536209 355.458496,136.514465 361.081970,144.548141 
	C361.250977,144.824631 361.494324,144.994980 361.974152,145.658493 
	C362.553101,146.219147 363.132019,146.779800 363.848114,147.131943 
	C363.848114,147.131943 363.662231,147.298492 363.908508,147.858017 
	C364.581818,148.287109 365.255127,148.716187 365.944855,149.058212 
	C365.944855,149.058212 365.860413,149.085007 366.059631,149.589767 
	C366.374939,149.725128 366.690247,149.860489 367.000000,150.000000 
M542.670288,152.850922 
	C543.116394,152.748215 543.562561,152.645523 544.813110,152.742615 
	C545.910889,152.676270 547.008728,152.609924 548.891907,152.756317 
	C550.245422,152.722229 551.598999,152.688141 553.668457,152.813080 
	C555.514465,152.742722 557.360474,152.672363 559.934631,152.826721 
	C562.524048,152.826721 565.113525,152.826721 567.863953,152.826721 
	C568.263428,151.141647 568.635498,149.572174 569.393921,147.435318 
	C570.000916,145.694962 570.607910,143.954605 571.214966,142.214233 
	C570.692993,141.953491 570.171021,141.692749 569.649109,141.432007 
	C568.788025,143.009521 567.927002,144.587036 566.544495,146.687027 
	C561.195923,151.146317 555.037781,149.684464 548.864868,148.420090 
	C548.747437,148.226486 548.630066,148.032898 548.535645,146.941101 
	C548.454346,142.341553 548.373047,137.742004 548.669800,132.976151 
	C548.669800,132.976151 548.924500,132.651108 549.851501,132.655548 
	C554.858826,132.603149 560.433838,130.944214 563.528320,137.352936 
	C563.528320,133.201691 563.528320,129.050461 563.528320,124.899231 
	C563.196228,124.480911 562.864197,124.062584 562.532104,123.644257 
	C561.058594,130.760223 556.129272,129.172363 551.894470,129.320358 
	C550.904114,129.354980 549.911926,129.336121 548.681580,129.031799 
	C548.681580,129.031799 548.318237,128.886246 548.321838,127.986282 
	C548.546082,122.995033 548.770325,118.003784 549.911987,112.832283 
	C555.671082,112.617218 561.776733,110.627808 566.314514,116.484230 
	C568.123657,109.997238 567.402832,108.960960 561.429932,109.101448 
	C557.297668,109.198624 553.169067,109.460548 549.036743,109.544243 
	C545.202026,109.621902 541.364624,109.560799 537.528381,109.560799 
	C537.471741,110.010628 537.415100,110.460449 537.358459,110.910278 
	C538.919312,111.607292 540.480164,112.304306 542.069031,113.700630 
	C542.325989,114.327774 542.582947,114.954926 542.573364,116.023376 
	C542.683533,116.501984 542.793701,116.980591 542.612427,117.881149 
	C542.705505,118.367783 542.798584,118.854424 542.700378,120.218925 
	C542.762573,127.370705 542.824768,134.522476 542.655701,142.149872 
	C542.710449,142.652298 542.765198,143.154709 542.470703,144.505981 
	C542.410034,146.037384 542.349365,147.568771 542.113403,149.243927 
	C542.113403,149.243927 542.167542,149.464035 541.541809,149.779404 
	C540.104919,150.294022 538.668030,150.808640 537.231079,151.323257 
	C537.241150,151.639511 537.251221,151.955750 537.261292,152.272003 
	C538.176758,152.419006 539.092224,152.565994 540.663452,152.865997 
	C541.106384,152.814774 541.549377,152.763535 542.670288,152.850922 
M519.745789,119.184364 
	C519.922668,118.778137 520.099548,118.371910 520.736938,117.614685 
	C520.881348,117.259895 521.025757,116.905113 521.749390,116.186188 
	C522.289551,115.202339 522.829712,114.218483 523.223999,113.186768 
	C523.223999,113.186768 523.266968,113.334167 523.833130,113.048103 
	C524.013672,111.954994 524.194214,110.861893 524.329224,109.692062 
	C524.329224,109.692062 524.295776,109.609344 523.989380,109.210213 
	C523.667236,109.227806 523.345032,109.245399 522.260376,109.160965 
	C521.507507,109.280251 520.754700,109.399529 519.084412,109.337318 
	C512.601807,109.403603 506.063141,110.015831 499.654785,109.358200 
	C494.792450,108.859230 492.464203,109.944160 492.462067,114.897110 
	C492.461182,116.880493 492.571747,118.863930 492.631592,120.847343 
	C493.166595,120.820923 493.701569,120.794502 494.236572,120.768089 
	C494.489990,119.846283 494.743439,118.924484 495.001221,117.998978 
	C495.001221,117.998978 494.999817,117.990601 495.359863,117.549088 
	C495.591492,117.038681 495.823120,116.528275 496.000061,116.001984 
	C496.000061,116.001984 496.031158,116.049744 496.650299,115.712578 
	C498.759918,114.756020 500.869507,113.799461 503.899658,112.941177 
	C507.608368,112.892601 511.317108,112.844025 515.762817,113.084511 
	C513.839417,116.722130 511.916016,120.359756 510.000000,124.000000 
	C510.000000,124.000000 509.996155,123.991638 509.469910,124.315125 
	C508.965973,125.202087 508.462036,126.089058 508.002258,126.997673 
	C508.002258,126.997673 507.973022,126.957932 507.415192,127.244705 
	C506.924622,128.158630 506.434052,129.072556 505.453461,130.242844 
	C505.329407,130.578476 505.205353,130.914108 504.676117,131.608612 
	C504.419312,132.063812 504.162537,132.519028 503.346375,133.334152 
	C499.618347,139.210602 495.890320,145.087051 492.082611,151.513580 
	C492.336487,151.751068 492.590363,151.988571 493.176056,152.493866 
	C493.176056,152.493866 493.596191,152.566574 494.049744,152.808533 
	C494.375916,152.744125 494.702057,152.679703 495.955017,152.719757 
	C504.960480,152.685074 513.965942,152.650391 523.547852,152.855377 
	C523.989929,152.549698 524.432007,152.244019 525.129272,151.245392 
	C525.885254,148.293396 526.641235,145.341400 527.397217,142.389389 
	C527.178650,141.862396 526.960083,141.335419 526.741516,140.808426 
	C520.380493,152.987930 509.990356,149.708160 499.337280,149.890411 
	C504.620148,141.740097 509.343262,134.453293 514.557068,126.853607 
	C515.129272,125.892296 515.701477,124.930992 516.735779,123.617958 
	C516.880615,123.262115 517.025452,122.906281 517.749878,122.186707 
	C518.289612,121.202339 518.829285,120.217972 519.226318,119.232468 
	C519.226318,119.232468 519.315552,119.343849 519.745789,119.184364 
M246.382065,116.486801 
	C246.941452,115.341576 247.500854,114.196350 248.652145,112.739883 
	C249.857437,111.913429 251.062729,111.086975 253.055496,109.720566 
	C247.409607,109.720566 242.975815,109.720566 238.542023,109.720566 
	C238.490753,109.986298 238.439484,110.252022 238.388214,110.517754 
	C239.908432,111.357201 241.428665,112.196648 242.908142,113.790382 
	C241.600845,117.862198 240.293549,121.934013 238.755051,126.225502 
	C238.755051,126.225502 238.721497,126.542671 238.230377,127.030144 
	C237.790314,128.327194 237.350266,129.624252 236.392838,131.381424 
	C235.123535,134.607834 233.854233,137.834229 232.188049,141.469513 
	C232.130646,141.650543 232.073227,141.831589 231.537399,142.141342 
	C231.537399,142.141342 231.043304,142.177124 230.831924,141.452087 
	C227.084595,132.125351 223.337280,122.798599 219.578171,113.442528 
	C221.443298,112.154800 222.725143,111.269791 224.789734,109.844345 
	C218.654984,109.844345 213.519501,109.844345 209.393997,109.844345 
	C211.353363,112.796532 213.706985,115.568077 215.187317,118.746368 
	C217.697601,124.135956 219.631226,129.792496 221.854782,135.317688 
	C224.162399,141.051712 226.526474,146.763000 229.229630,153.373917 
	C230.674225,151.554703 231.332169,150.726135 232.426086,149.399902 
	C232.980896,147.943436 233.535706,146.486954 234.011185,145.022903 
	C234.011185,145.022903 234.061844,145.084412 234.586441,144.631180 
	C235.392227,142.422256 236.198013,140.213333 237.000000,138.000000 
	C237.000000,138.000000 237.004318,138.003769 237.412186,137.468658 
	C237.969757,136.006683 238.527313,134.544708 239.606293,132.618668 
	C241.100769,128.772781 242.595261,124.926888 244.585495,120.649078 
	C245.053925,119.430153 245.522339,118.211227 246.382065,116.486801 
M146.097855,88.999115 
	C133.069656,89.096458 120.041458,89.193802 106.337608,89.282959 
	C104.505699,91.058556 102.673782,92.834145 100.293129,95.323639 
	C100.270561,118.849556 100.247993,142.375473 100.137733,166.624435 
	C101.263916,171.265045 104.216156,173.867752 108.981506,173.902496 
	C118.306152,173.970505 127.632347,173.826935 137.897476,173.895111 
	C150.136246,173.928925 162.376022,174.050949 174.612869,173.913666 
	C176.766907,173.889496 178.908768,172.780319 181.554382,171.999893 
	C181.763962,171.728485 181.973541,171.457077 182.823578,170.802368 
	C183.532425,168.312973 184.834259,165.828964 184.856964,163.333344 
	C185.050522,142.041824 185.037476,120.748154 184.994812,99.455315 
	C184.991364,97.733429 184.308304,96.012909 183.497787,93.778175 
	C181.974792,92.504784 180.451797,91.231392 178.416367,89.300400 
	C167.952438,89.256668 157.488510,89.212936 146.097855,88.999115 
M267.260925,148.631805 
	C267.144318,149.068375 267.027679,149.504929 266.222656,150.065521 
	C265.014313,150.542114 263.806000,151.018707 262.597656,151.495300 
	C262.703949,151.816589 262.810272,152.137863 262.916565,152.459137 
	C267.973785,152.459137 273.030975,152.459137 278.088196,152.459137 
	C272.741394,150.213364 273.343262,145.711487 273.324799,141.528107 
	C273.294678,134.702057 273.279572,127.875496 273.331696,121.049713 
	C273.364716,116.722984 272.647217,112.007065 278.154602,109.743118 
	C272.970154,109.743118 267.785706,109.743118 261.791321,109.743118 
	C267.480896,113.545052 267.502625,113.545013 267.514282,120.551338 
	C267.529541,129.699615 267.506104,138.847946 267.260925,148.631805 
M340.557770,112.547295 
	C341.978302,111.951408 343.398865,111.355522 344.819397,110.759636 
	C344.745209,110.429451 344.671021,110.099258 344.596832,109.769073 
	C339.391174,109.769073 334.185516,109.769073 329.151581,109.769073 
	C330.828247,111.822357 333.455292,113.548920 333.477051,115.307739 
	C333.620117,126.864128 333.201202,138.427475 332.212799,150.162857 
	C331.102539,150.681396 329.992279,151.199936 328.882019,151.718475 
	C329.040100,151.927185 329.198151,152.135910 329.356232,152.344620 
	C334.424408,152.344620 339.492554,152.344620 345.460815,152.344620 
	C339.919739,149.125534 339.820343,149.125549 339.819092,143.450363 
	C339.816833,133.315598 339.947723,123.180794 340.557770,112.547295 
M443.287933,112.372559 
	C443.491119,112.616676 443.716156,112.838623 443.922943,113.968048 
	C443.962158,122.670006 444.001373,131.371964 443.323853,140.073837 
	C437.204773,131.412781 431.038330,122.784653 424.984802,114.078011 
	C421.479126,109.035950 416.386078,107.665840 410.332916,110.126823 
	C411.939453,111.621895 413.658875,113.222008 415.150482,115.761269 
	C415.227020,125.568413 415.303528,135.375565 415.266022,145.963806 
	C413.761780,148.040848 412.257568,150.117889 410.257233,152.879990 
	C414.525116,152.682510 419.122559,152.469757 424.958893,152.199692 
	C422.066345,150.640045 420.506866,149.799194 419.013489,148.948837 
	C419.013489,148.948837 418.956024,148.913925 419.313293,148.205566 
	C419.313293,138.138458 419.313293,128.071350 419.313293,118.004234 
	C419.749664,117.958794 420.186035,117.913353 420.622406,117.867912 
	C427.682800,127.600044 434.743195,137.332184 441.985596,147.674438 
	C442.275604,147.972244 442.565613,148.270050 442.909180,149.016006 
	C443.211304,149.332306 443.513397,149.648621 444.023071,150.698959 
	C445.028839,151.551941 446.034607,152.404922 448.084625,154.143509 
	C448.084625,139.467285 448.084625,126.256134 448.481415,112.778702 
	C448.712585,112.556122 448.908875,112.306114 449.668701,111.876511 
	C450.712158,111.433670 451.755646,110.990829 453.669739,110.178513 
	C447.922302,110.178513 443.139282,110.178513 438.356262,110.178513 
	C438.349670,110.420753 438.343048,110.662987 438.336426,110.905228 
	C439.885223,111.273125 441.433990,111.641022 443.287933,112.372559 
M469.575500,135.494598 
	C468.450073,141.212067 472.885773,148.433502 463.876648,152.314484 
	C470.070099,152.314484 475.091431,152.314484 480.112762,152.314484 
	C475.066803,150.587723 475.299133,146.594879 475.280151,142.785400 
	C475.247040,136.134155 475.181152,129.481033 475.299438,122.831726 
	C475.384827,118.031578 473.854492,112.566216 481.365143,109.761002 
	C474.796204,109.761002 469.735626,109.761002 464.675049,109.761002 
	C470.237396,111.576912 469.543671,115.996033 469.566833,120.029182 
	C469.594543,124.851303 469.575104,129.673691 469.575500,135.494598 
z"/>
<path fill="#6C2AC3" opacity="1.000000" stroke="none" 
	d="
M443.815521,149.964920 
	C443.513397,149.648621 443.211304,149.332306 442.830811,148.464752 
	C442.436188,147.630417 442.119904,147.347366 441.803619,147.064301 
	C434.743195,137.332184 427.682800,127.600044 420.622406,117.867912 
	C420.186035,117.913353 419.749664,117.958794 419.313293,118.004234 
	C419.313293,128.071350 419.313293,138.138458 419.125061,148.097229 
	C418.936798,138.436127 418.936798,128.883347 418.936798,119.330559 
	C417.997559,126.149567 417.902222,132.957825 418.040588,139.761353 
	C418.103027,142.831879 418.630798,145.892975 418.947418,148.958344 
	C420.506866,149.799194 422.066345,150.640045 424.958893,152.199692 
	C419.122559,152.469757 414.525116,152.682510 410.257233,152.879990 
	C412.257568,150.117889 413.761780,148.040848 415.518799,145.542664 
	C415.771606,145.121521 416.143738,144.984726 416.406342,144.668732 
	C416.779297,139.267166 417.040314,134.179077 416.955811,129.096725 
	C416.877747,124.400002 416.429382,119.709419 415.957458,114.948395 
	C415.770905,114.880646 415.378265,114.822113 415.378265,114.822113 
	C413.658875,113.222008 411.939453,111.621895 410.332916,110.126823 
	C416.386078,107.665840 421.479126,109.035950 424.984802,114.078011 
	C431.038330,122.784653 437.204773,131.412781 443.978577,140.142944 
	C444.757996,133.506042 444.982330,126.799614 444.953400,120.094276 
	C444.943207,117.740936 444.311157,115.390282 443.963043,113.038406 
	C443.716156,112.838623 443.491119,112.616676 443.465393,112.048904 
	C445.451965,111.826401 447.261108,111.927544 449.070221,112.028694 
	C448.908875,112.306114 448.712585,112.556122 447.963379,113.179535 
	C447.293945,115.378281 447.019928,117.175636 447.011597,118.974205 
	C446.967865,128.429871 446.969513,137.885941 447.007111,147.341644 
	C447.016235,149.636963 446.929077,151.578369 443.815521,149.964920 
z"/>
<path fill="#8648D7" opacity="1.000000" stroke="none" 
	d="
M183.941040,94.291756 
	C184.308304,96.012909 184.991364,97.733429 184.994812,99.455315 
	C185.037476,120.748154 185.050522,142.041824 184.856964,163.333344 
	C184.834259,165.828964 183.532425,168.312973 182.444473,170.935577 
	C182.065369,171.068787 181.942337,170.957428 181.959534,170.577942 
	C181.603638,168.986252 181.578049,167.449585 180.799606,166.615814 
	C176.540268,162.053848 172.260818,157.484131 167.657425,153.279282 
	C164.597580,150.484344 160.984100,148.295517 157.855499,145.539856 
	C161.627121,143.780090 162.543381,141.163376 162.354141,137.418015 
	C162.063583,131.667618 162.409744,125.885033 162.666687,120.388596 
	C162.944611,121.761154 163.041565,122.861229 163.099289,124.420349 
	C163.403397,128.230270 162.536972,132.594223 164.327896,134.732925 
	C168.828995,140.108017 174.509140,144.501678 179.771973,149.227097 
	C180.649918,150.015396 181.806335,150.493546 183.966537,151.799789 
	C183.966537,147.763168 183.966537,144.874054 183.973175,141.522629 
	C183.975220,137.037018 183.970642,133.013718 183.976074,128.528290 
	C183.980499,124.042778 183.974899,120.019356 183.979523,115.527740 
	C183.973495,108.136940 183.957275,101.214348 183.941040,94.291756 
z"/>
<path fill="#6925C1" opacity="1.000000" stroke="none" 
	d="
M517.170227,122.550430 
	C517.025452,122.906281 516.880615,123.262115 516.219604,123.886032 
	C515.157776,125.158234 514.612122,126.162354 514.066406,127.166473 
	C509.343262,134.453293 504.620148,141.740097 499.337280,149.890411 
	C509.990356,149.708160 520.380493,152.987930 526.741516,140.808426 
	C526.960083,141.335419 527.178650,141.862396 527.397217,142.389389 
	C526.641235,145.341400 525.885254,148.293396 524.739990,151.615021 
	C523.890930,152.194992 523.431152,152.405365 522.971436,152.615723 
	C513.965942,152.650391 504.960480,152.685074 495.275024,152.504822 
	C494.262054,152.382111 493.929138,152.474350 493.596191,152.566589 
	C493.596191,152.566574 493.176056,152.493866 492.997864,152.105011 
	C492.600555,151.465271 492.381409,151.214371 492.162292,150.963501 
	C495.890320,145.087051 499.618347,139.210602 503.877686,133.033234 
	C504.633057,132.238113 504.857178,131.743927 505.081299,131.249741 
	C505.205353,130.914108 505.329407,130.578476 505.999756,129.984802 
	C507.021698,128.803802 507.497345,127.880875 507.973022,126.957932 
	C507.973022,126.957932 508.002258,126.997673 508.328430,126.943314 
	C509.101776,125.923180 509.548981,124.957413 509.996155,123.991638 
	C509.996155,123.991638 510.000000,124.000000 510.339172,123.949501 
	C512.597290,121.286621 514.656860,118.762207 516.370728,116.021584 
	C517.131836,114.804588 518.371460,112.643440 515.025818,112.795441 
	C511.317108,112.844025 507.608368,112.892601 503.184814,112.654755 
	C499.285065,111.778862 496.795227,112.405113 496.031158,116.049744 
	C496.031158,116.049744 496.000061,116.001984 495.766968,116.161652 
	C495.355896,116.877747 495.177856,117.434174 494.999817,117.990601 
	C494.999817,117.990601 495.001221,117.998978 494.652618,117.943024 
	C494.304016,115.693527 494.304016,113.500000 494.304016,110.990158 
	C501.712585,110.990158 508.476410,111.081474 515.234375,110.923073 
	C516.833618,110.885590 518.413208,110.009285 520.001831,109.518829 
	C520.754700,109.399529 521.507507,109.280251 522.810547,109.387970 
	C523.360718,109.614983 523.829041,109.758904 523.829041,109.758904 
	C523.829041,109.758904 524.295776,109.609344 524.295776,109.609344 
	C524.295776,109.609344 524.329224,109.692062 524.205811,110.081284 
	C523.810608,111.425064 523.538818,112.379616 523.266968,113.334167 
	C523.266968,113.334167 523.223999,113.186768 522.947754,113.291809 
	C522.171021,114.448013 521.670593,115.499168 521.170166,116.550323 
	C521.025757,116.905113 520.881348,117.259895 520.276978,117.865784 
	C519.649902,118.525864 519.482727,118.934853 519.315552,119.343842 
	C519.315552,119.343849 519.226318,119.232468 518.948547,119.314438 
	C518.170593,120.447746 517.670410,121.499084 517.170227,122.550430 
z"/>
<path fill="#6E21D0" opacity="1.000000" stroke="none" 
	d="
M183.719421,94.034966 
	C183.957275,101.214348 183.973495,108.136940 183.638306,115.493988 
	C175.475906,108.379189 167.633850,100.861374 159.907516,93.226456 
	C159.220978,92.548035 159.287613,91.107437 159.472504,90.013260 
	C166.269974,89.989792 172.599396,89.973892 178.928802,89.957993 
	C180.451797,91.231392 181.974792,92.504784 183.719421,94.034966 
z"/>
<path fill="#6E2EC2" opacity="1.000000" stroke="none" 
	d="
M469.575806,134.995285 
	C469.575104,129.673691 469.594543,124.851303 469.566833,120.029182 
	C469.543671,115.996033 470.237396,111.576912 464.675049,109.761002 
	C469.735626,109.761002 474.796204,109.761002 481.365143,109.761002 
	C473.854492,112.566216 475.384827,118.031578 475.299438,122.831726 
	C475.181152,129.481033 475.247040,136.134155 475.280151,142.785400 
	C475.299133,146.594879 475.066803,150.587723 480.112762,152.314484 
	C475.091431,152.314484 470.070099,152.314484 463.876648,152.314484 
	C472.885773,148.433502 468.450073,141.212067 469.575806,134.995285 
z"/>
<path fill="#8949DC" opacity="1.000000" stroke="none" 
	d="
M100.841873,94.609741 
	C102.673782,92.834145 104.505699,91.058556 106.697021,89.454514 
	C107.056442,89.626060 107.068924,89.963615 107.047737,90.332336 
	C107.692818,91.975395 108.106422,93.495209 109.066856,94.483727 
	C114.752106,100.335243 120.528389,106.100220 126.367943,111.798080 
	C127.376114,112.781807 128.833923,113.304718 129.942322,114.361664 
	C122.231506,117.215614 121.048813,123.089493 121.499435,129.929291 
	C120.799072,129.254349 120.399536,128.625336 120.000824,127.552582 
	C119.628044,124.216980 120.210060,120.615608 118.693184,118.572609 
	C114.865829,113.417763 110.196724,108.860542 105.617210,104.313316 
	C104.636436,103.339470 102.607887,103.420837 101.044815,102.558151 
	C100.965706,99.603386 100.903786,97.106560 100.841873,94.609741 
z"/>
<path fill="#6C2AC3" opacity="1.000000" stroke="none" 
	d="
M232.015793,142.012650 
	C232.073227,141.831589 232.130646,141.650543 232.695374,141.374023 
	C233.489090,142.547150 233.775467,143.815781 234.061844,145.084412 
	C234.061844,145.084412 234.011185,145.022903 233.756470,145.206299 
	C232.997864,146.892303 232.493973,148.394943 231.990112,149.897583 
	C231.332169,150.726135 230.674225,151.554703 229.229630,153.373917 
	C226.526474,146.763000 224.162399,141.051712 221.854782,135.317688 
	C219.631226,129.792496 217.697601,124.135956 215.187317,118.746368 
	C213.706985,115.568077 211.353363,112.796532 209.393997,109.844345 
	C213.519501,109.844345 218.654984,109.844345 224.789734,109.844345 
	C222.725143,111.269791 221.443298,112.154800 219.578171,113.442528 
	C223.337280,122.798599 227.084595,132.125351 231.054535,141.989517 
	C231.637970,142.570663 231.998810,142.614365 232.359650,142.658081 
	C232.245041,142.442932 232.130417,142.227798 232.015793,142.012650 
z"/>
<path fill="#A574E5" opacity="1.000000" stroke="none" 
	d="
M136.957901,173.770950 
	C127.632347,173.826935 118.306152,173.970505 108.981506,173.902496 
	C104.216156,173.867752 101.263916,171.265045 100.427338,165.948868 
	C100.823761,161.175339 100.930573,157.077377 101.385284,153.022980 
	C106.103523,156.827133 111.133896,160.055481 114.693481,164.469833 
	C120.396805,171.542694 127.226532,174.258209 136.168884,173.057556 
	C136.637894,173.284302 136.833084,173.495026 136.957901,173.770950 
z"/>
<path fill="#702FC4" opacity="1.000000" stroke="none" 
	d="
M340.022980,113.046005 
	C339.947723,123.180794 339.816833,133.315598 339.819092,143.450363 
	C339.820343,149.125549 339.919739,149.125534 345.460815,152.344620 
	C339.492554,152.344620 334.424408,152.344620 329.356232,152.344620 
	C329.198151,152.135910 329.040100,151.927185 328.882019,151.718475 
	C329.992279,151.199936 331.102539,150.681396 332.853394,149.987030 
	C333.983795,149.263885 334.473572,148.716568 334.981934,147.683746 
	C334.988708,136.406326 334.976868,125.614433 334.792175,114.504524 
	C334.886200,113.143234 335.153046,112.099953 335.419891,111.056671 
	C336.954254,111.719788 338.488617,112.382896 340.022980,113.046005 
z"/>
<path fill="#743EBB" opacity="1.000000" stroke="none" 
	d="
M267.499329,147.996262 
	C267.506104,138.847946 267.529541,129.699615 267.514282,120.551338 
	C267.502625,113.545013 267.480896,113.545052 261.791321,109.743118 
	C267.785706,109.743118 272.970154,109.743118 278.154602,109.743118 
	C272.647217,112.007065 273.364716,116.722984 273.331696,121.049713 
	C273.279572,127.875496 273.294678,134.702057 273.324799,141.528107 
	C273.343262,145.711487 272.741394,150.213364 278.088196,152.459137 
	C273.030975,152.459137 267.973785,152.459137 262.916565,152.459137 
	C262.810272,152.137863 262.703949,151.816589 262.597656,151.495300 
	C263.806000,151.018707 265.014313,150.542114 266.919006,150.168793 
	C269.248962,150.464447 270.882538,150.656830 272.417603,150.837601 
	C272.417603,137.226166 272.417603,124.373230 272.417603,111.063332 
	C270.955200,111.181396 269.611786,111.289856 268.963287,111.342209 
	C268.963287,123.185875 268.991852,134.446487 268.900421,145.706146 
	C268.894165,146.473251 267.987305,147.233063 267.499329,147.996262 
z"/>
<path fill="#671CC9" opacity="1.000000" stroke="none" 
	d="
M387.688324,113.018616 
	C398.564545,118.863029 403.376190,135.348053 390.519287,147.615540 
	C389.665466,146.604843 389.356720,145.412201 389.084167,143.826630 
	C393.809235,138.167801 392.746857,121.909355 385.954468,115.269333 
	C385.479401,114.094246 385.047394,113.211617 384.213867,111.508751 
	C385.987640,112.279572 386.837982,112.649094 387.688324,113.018616 
z"/>
<path fill="#671CC9" opacity="1.000000" stroke="none" 
	d="
M548.512756,147.839325 
	C548.630066,148.032898 548.747437,148.226486 548.917969,149.082809 
	C548.974548,150.186340 548.977966,150.627151 548.598877,151.050110 
	C546.790039,151.322906 545.363708,151.613571 543.618774,151.925079 
	C542.873779,151.946075 542.447327,151.946228 542.000610,151.705688 
	C541.980408,151.464996 541.916931,150.986130 541.952148,150.731186 
	C542.047424,150.138840 542.107483,149.801437 542.167542,149.464035 
	C542.167542,149.464035 542.113403,149.243927 542.568359,149.028473 
	C543.341797,147.756348 543.929260,146.701630 543.936951,145.642731 
	C544.007690,135.826553 544.008484,126.009415 543.935242,116.193253 
	C543.927307,115.127037 543.324463,114.065262 543.059570,112.638168 
	C545.043701,110.535606 546.805237,109.883728 547.981567,113.462402 
	C548.074219,118.914146 548.196228,123.900192 548.318237,128.886246 
	C548.318237,128.886246 548.681580,129.031799 548.816772,129.517548 
	C548.942749,130.885895 548.933655,131.768509 548.924500,132.651108 
	C548.924500,132.651108 548.669800,132.976151 548.341003,133.412338 
	C548.179016,138.512131 548.345886,143.175720 548.512756,147.839325 
z"/>
<path fill="#6B25C7" opacity="1.000000" stroke="none" 
	d="
M309.997101,147.974884 
	C310.080322,147.789963 310.163574,147.605026 310.737030,147.117981 
	C311.340668,145.255081 311.454102,143.694321 311.567505,142.133545 
	C311.415863,141.659653 311.264221,141.185760 311.324280,140.143341 
	C310.983154,139.077988 310.430298,138.581192 309.877441,138.084396 
	C309.877441,138.084396 309.956665,138.037827 309.851318,137.826691 
	C309.442871,137.429474 309.139801,137.243408 308.836700,137.057343 
	C308.673309,136.990707 308.509918,136.924057 308.107544,136.374939 
	C307.395844,135.660446 306.923157,135.428436 306.450439,135.196426 
	C306.450439,135.196426 306.193665,135.241898 305.933411,134.890442 
	C305.098328,134.371552 304.523438,134.204117 303.948578,134.036667 
	C303.948578,134.036667 303.981781,133.993774 303.802979,133.764343 
	C303.233429,133.419495 302.842651,133.304062 302.451874,133.188629 
	C302.451874,133.188629 302.183624,133.220398 301.971741,132.886887 
	C301.455200,132.398834 301.150574,132.244308 300.845917,132.089783 
	C300.845917,132.089783 300.938385,132.063736 300.784912,131.830154 
	C300.238983,131.460098 299.846558,131.323608 299.454102,131.187134 
	C299.454102,131.187134 299.183563,131.217926 298.963654,130.829254 
	C298.050049,130.060989 297.356323,129.681381 296.662628,129.301788 
	C296.662628,129.301788 296.849884,129.181534 296.769257,128.929962 
	C296.006073,128.218109 295.323517,127.757851 294.640961,127.297592 
	C294.640961,127.297592 294.780701,127.176414 294.741943,126.938766 
	C294.106445,126.146049 293.509735,125.590981 292.913025,125.035912 
	C292.913025,125.035912 292.992767,125.022018 292.990479,124.603317 
	C293.211609,121.002472 293.434998,117.820335 293.658386,114.638199 
	C293.658386,114.638199 293.603821,114.575119 294.000702,114.729507 
	C294.933228,116.312912 295.399445,117.773186 296.024658,119.161858 
	C296.614044,120.471008 297.370850,121.704788 298.054016,122.971710 
	C298.054016,122.971718 297.998749,122.995667 298.042969,123.298775 
	C298.731659,124.064903 299.376129,124.527924 300.020630,124.990936 
	C300.020630,124.990944 300.000977,125.002937 300.128601,125.278427 
	C300.940735,125.947861 301.625214,126.341797 302.309723,126.735733 
	C302.309723,126.735733 302.172943,126.778709 302.265320,127.041679 
	C303.339844,127.787643 304.321991,128.270645 305.304169,128.753632 
	C305.304169,128.753632 305.158081,128.786057 305.268280,129.055481 
	C307.613800,130.530975 309.849121,131.737076 312.084442,132.943161 
	C312.084442,132.943161 312.016418,132.988205 312.127319,133.194733 
	C312.533691,133.580048 312.829132,133.758850 313.124603,133.937653 
	C313.124603,133.937653 313.043060,133.956009 313.141052,134.168396 
	C313.534180,134.566650 313.829285,134.752533 314.124420,134.938431 
	C314.124420,134.938431 314.042908,134.956909 314.137451,135.167511 
	C314.518127,135.571884 314.804260,135.765625 315.090363,135.959366 
	C315.090363,135.959366 315.011810,135.984741 315.056763,136.356384 
	C314.896790,140.603302 314.691864,144.478561 314.486908,148.353836 
	C314.486908,148.353836 314.407990,148.335632 314.106293,148.356476 
	C313.676392,148.715042 313.548218,149.052734 313.420013,149.390442 
	C313.420013,149.390442 313.339905,149.411545 312.981934,149.303009 
	C311.748322,148.787949 310.872711,148.381424 309.997101,147.974884 
z"/>
<path fill="#671CC9" opacity="1.000000" stroke="none" 
	d="
M369.505737,151.218094 
	C369.505737,151.218094 369.221741,151.239532 368.954041,150.885529 
	C368.125000,150.352509 367.563690,150.173477 367.002380,149.994446 
	C367.002380,149.994446 367.000000,150.000000 366.883972,149.767181 
	C366.465424,149.384583 366.162933,149.234787 365.860413,149.085007 
	C365.860413,149.085007 365.944855,149.058212 365.838074,148.794662 
	C365.041595,148.120239 364.351929,147.709366 363.662231,147.298492 
	C363.662231,147.298492 363.848114,147.131943 363.773651,146.906296 
	C363.070129,146.140167 362.441040,145.599670 361.811981,145.059189 
	C361.494324,144.994980 361.250977,144.824631 361.006653,143.941177 
	C359.951447,138.382324 358.569977,133.464218 358.149536,128.465286 
	C357.915344,125.680389 359.280731,122.760956 359.925232,119.902153 
	C359.925232,119.902153 359.977722,119.970528 360.206177,119.804764 
	C360.563599,119.250046 360.692535,118.861099 360.821442,118.472145 
	C361.048492,118.048264 361.275543,117.624390 362.012238,116.987610 
	C362.991638,116.137444 363.461395,115.500168 363.931183,114.862900 
	C363.931183,114.862907 363.961823,114.966492 364.281311,114.996140 
	C365.501831,115.385910 366.402863,115.746040 367.199585,116.366562 
	C366.776611,117.081642 366.457977,117.536331 365.859314,118.150223 
	C365.412384,118.906502 365.245483,119.503571 365.051697,120.066559 
	C365.024872,120.032471 365.111359,120.039299 364.835022,120.195625 
	C364.411316,120.945274 364.263947,121.538597 364.090515,122.092056 
	C364.064484,122.052200 364.159424,122.059471 363.835815,122.269363 
	C361.748749,127.735130 360.433228,132.972916 364.223511,138.089905 
	C364.308105,138.171753 364.250122,138.399887 364.192932,138.773376 
	C364.490234,139.739792 364.844757,140.332703 365.151001,140.921509 
	C365.102692,140.917419 365.149658,140.832596 365.124817,141.190353 
	C365.878967,142.576874 366.657959,143.605621 367.295837,144.782013 
	C367.154694,144.929672 367.401855,144.604401 367.380859,144.954514 
	C368.058807,145.814209 368.757721,146.323776 369.630615,146.917023 
	C369.804565,147.000671 369.968750,147.350052 370.043793,147.656921 
	C371.100555,149.272003 372.925598,150.739105 369.505737,151.218094 
z"/>
<path fill="#671CC9" opacity="1.000000" stroke="none" 
	d="
M267.380127,148.314026 
	C267.987305,147.233063 268.894165,146.473251 268.900421,145.706146 
	C268.991852,134.446487 268.963287,123.185875 268.963287,111.342209 
	C269.611786,111.289856 270.955200,111.181396 272.417603,111.063332 
	C272.417603,124.373230 272.417603,137.226166 272.417603,150.837601 
	C270.882538,150.656830 269.248962,150.464447 267.263245,150.106781 
	C267.027679,149.504929 267.144318,149.068375 267.380127,148.314026 
z"/>
<path fill="#7139BB" opacity="1.000000" stroke="none" 
	d="
M548.010986,112.996704 
	C546.805237,109.883728 545.043701,110.535606 543.056030,112.642181 
	C542.990479,113.009460 542.980774,113.018852 542.745850,113.011368 
	C542.510986,113.003876 542.041016,113.001320 542.041016,113.001320 
	C540.480164,112.304306 538.919312,111.607292 537.358459,110.910278 
	C537.415100,110.460449 537.471741,110.010628 537.528381,109.560799 
	C541.364624,109.560799 545.202026,109.621902 549.036743,109.544243 
	C553.169067,109.460548 557.297668,109.198624 561.429932,109.101448 
	C567.402832,108.960960 568.123657,109.997238 566.314514,116.484230 
	C561.776733,110.627808 555.671082,112.617218 549.207520,112.916092 
	C548.502991,112.999901 548.010986,112.996704 548.010986,112.996704 
z"/>
<path fill="#7139BB" opacity="1.000000" stroke="none" 
	d="
M297.973694,122.588760 
	C297.370850,121.704788 296.614044,120.471008 296.024658,119.161858 
	C295.399445,117.773186 294.933228,116.312912 294.000549,114.687805 
	C298.169739,109.104927 307.828308,106.664398 312.750610,110.721848 
	C314.854370,112.455971 314.727295,116.896416 314.734131,120.670563 
	C310.500885,115.512787 307.344696,108.789108 299.394897,113.289513 
	C296.021027,115.199455 296.471466,118.892677 297.973694,122.588760 
z"/>
<path fill="#7139BB" opacity="1.000000" stroke="none" 
	d="
M309.647461,148.140610 
	C310.872711,148.381424 311.748322,148.787949 312.980408,149.344391 
	C307.129761,155.145706 299.776398,153.857880 293.192749,151.408127 
	C291.038879,150.606674 290.680023,144.981216 289.500275,141.561890 
	C290.099457,141.235504 290.698639,140.909134 291.297821,140.582748 
	C292.227875,141.735367 293.359833,142.778549 294.054108,144.059006 
	C297.607605,150.612946 302.850159,152.115707 309.647461,148.140610 
z"/>
<path fill="#743EBB" opacity="1.000000" stroke="none" 
	d="
M549.388000,132.653320 
	C548.933655,131.768509 548.942749,130.885895 548.936279,129.672577 
	C549.911926,129.336121 550.904114,129.354980 551.894470,129.320358 
	C556.129272,129.172363 561.058594,130.760223 562.532104,123.644257 
	C562.864197,124.062584 563.196228,124.480911 563.528320,124.899231 
	C563.528320,129.050461 563.528320,133.201691 563.528320,137.352936 
	C560.433838,130.944214 554.858826,132.603149 549.388000,132.653320 
z"/>
<path fill="#9365CF" opacity="1.000000" stroke="none" 
	d="
M137.427689,173.833038 
	C136.833084,173.495026 136.637894,173.284302 136.182983,172.815735 
	C135.993637,172.492722 136.007324,172.007935 136.475098,172.007812 
	C143.624985,172.006531 150.307083,172.005402 157.456406,172.005493 
	C162.611969,172.008484 167.300323,172.010239 172.439606,172.014404 
	C175.603882,171.952301 178.317230,171.887802 181.043793,171.910019 
	C181.057007,171.996735 181.056259,172.172211 181.056259,172.172211 
	C178.908768,172.780319 176.766907,173.889496 174.612869,173.913666 
	C162.376022,174.050949 150.136246,173.928925 137.427689,173.833038 
z"/>
<path fill="#8048C9" opacity="1.000000" stroke="none" 
	d="
M340.290375,112.796654 
	C338.488617,112.382896 336.954254,111.719788 335.419891,111.056671 
	C335.153046,112.099953 334.886200,113.143234 334.541016,114.851654 
	C334.369232,121.318733 334.143219,127.122490 334.222198,132.922073 
	C334.291412,138.006897 334.702972,143.087036 334.963348,148.169250 
	C334.473572,148.716568 333.983795,149.263885 333.229828,149.899872 
	C333.201202,138.427475 333.620117,126.864128 333.477051,115.307739 
	C333.455292,113.548920 330.828247,111.822357 329.151581,109.769073 
	C334.185516,109.769073 339.391174,109.769073 344.596832,109.769073 
	C344.671021,110.099258 344.745209,110.429451 344.819397,110.759636 
	C343.398865,111.355522 341.978302,111.951408 340.290375,112.796654 
z"/>
<path fill="#6F35BB" opacity="1.000000" stroke="none" 
	d="
M367.303925,116.106171 
	C366.402863,115.746040 365.501831,115.385910 364.239990,114.961349 
	C371.001587,107.939133 381.396851,106.849632 387.510986,112.728668 
	C386.837982,112.649094 385.987640,112.279572 384.213867,111.508751 
	C385.047394,113.211617 385.479401,114.094246 385.655243,115.128677 
	C377.891174,110.465187 373.909241,110.646889 367.303925,116.106171 
z"/>
<path fill="#7139BB" opacity="1.000000" stroke="none" 
	d="
M369.754639,151.518188 
	C372.925598,150.739105 371.100555,149.272003 370.381012,147.765930 
	C378.374268,152.008469 382.745087,151.213257 389.047974,144.219559 
	C389.356720,145.412201 389.665466,146.604843 390.284027,147.887360 
	C384.612427,153.985703 377.562714,154.267410 369.754639,151.518188 
z"/>
<path fill="#6F35BB" opacity="1.000000" stroke="none" 
	d="
M519.543091,109.428078 
	C518.413208,110.009285 516.833618,110.885590 515.234375,110.923073 
	C508.476410,111.081474 501.712585,110.990158 494.304016,110.990158 
	C494.304016,113.500000 494.304016,115.693527 494.650452,117.944870 
	C494.743439,118.924484 494.489990,119.846283 494.236572,120.768089 
	C493.701569,120.794502 493.166595,120.820923 492.631592,120.847343 
	C492.571747,118.863930 492.461182,116.880493 492.462067,114.897110 
	C492.464203,109.944160 494.792450,108.859230 499.654785,109.358200 
	C506.063141,110.015831 512.601807,109.403603 519.543091,109.428078 
z"/>
<path fill="#743EBB" opacity="1.000000" stroke="none" 
	d="
M548.981323,151.067963 
	C548.977966,150.627151 548.974548,150.186340 548.984375,149.415833 
	C555.037781,149.684464 561.195923,151.146317 566.926147,146.673798 
	C567.874451,147.107956 568.440979,147.555328 569.007568,148.002701 
	C568.635498,149.572174 568.263428,151.141647 567.863953,152.826721 
	C565.113525,152.826721 562.524048,152.826721 559.355103,152.327637 
	C556.732605,151.579620 554.689636,151.330704 552.646606,151.081787 
	C552.748596,151.605881 552.850586,152.129974 552.952515,152.654068 
	C551.598999,152.688141 550.245422,152.722229 548.613708,152.466202 
	C548.550781,151.806717 548.766113,151.437332 548.981323,151.067963 
z"/>
<path fill="#9365CF" opacity="1.000000" stroke="none" 
	d="
M101.037384,152.979416 
	C100.930573,157.077377 100.823761,161.175339 100.471191,165.587341 
	C100.247993,142.375473 100.270561,118.849556 100.567497,94.966690 
	C100.903786,97.106560 100.965706,99.603386 101.025894,103.014145 
	C101.035576,107.285088 101.046989,110.642082 101.041695,114.443665 
	C101.036659,117.262421 101.048332,119.636597 101.043930,122.477310 
	C101.038452,128.628815 101.049049,134.313797 101.046478,140.461761 
	C101.034668,144.942978 101.036026,148.961197 101.037384,152.979416 
z"/>
<path fill="#6F35BB" opacity="1.000000" stroke="none" 
	d="
M238.986267,126.005821 
	C240.293549,121.934013 241.600845,117.862198 242.966309,113.391678 
	C243.024460,112.992973 243.100998,112.951530 243.339569,113.200523 
	C243.278961,115.162827 242.824921,116.869652 242.752838,118.592453 
	C242.721756,119.335426 243.481079,120.111473 243.932983,120.925056 
	C243.984650,120.977623 244.089752,121.081001 244.089752,121.081001 
	C242.595261,124.926888 241.100769,128.772781 239.292099,132.798172 
	C238.977905,132.977676 238.871216,132.872314 238.868500,132.576782 
	C238.286560,131.896347 237.707352,131.511459 237.073914,131.074982 
	C237.019669,131.023407 236.910202,130.921310 236.910202,130.921310 
	C237.350266,129.624252 237.790314,128.327194 238.629501,127.055832 
	C239.525482,127.131409 240.022339,127.181290 240.519196,127.231178 
	C240.008224,126.822723 239.497238,126.414268 238.986267,126.005821 
z"/>
<path fill="#6D35B5" opacity="1.000000" stroke="none" 
	d="
M443.919312,150.331940 
	C446.929077,151.578369 447.016235,149.636963 447.007111,147.341644 
	C446.969513,137.885941 446.967865,128.429871 447.011597,118.974205 
	C447.019928,117.175636 447.293945,115.378281 447.764984,113.312683 
	C448.084625,126.256134 448.084625,139.467285 448.084625,154.143509 
	C446.034607,152.404922 445.028839,151.551941 443.919312,150.331940 
z"/>
<path fill="#7139BB" opacity="1.000000" stroke="none" 
	d="
M542.994019,113.005447 
	C543.324463,114.065262 543.927307,115.127037 543.935242,116.193253 
	C544.008484,126.009415 544.007690,135.826553 543.936951,145.642731 
	C543.929260,146.701630 543.341797,147.756348 542.655945,148.956604 
	C542.349365,147.568771 542.410034,146.037384 542.710938,143.843109 
	C542.929810,142.678253 542.908386,142.176254 542.886963,141.674255 
	C542.824768,134.522476 542.762573,127.370705 542.812073,119.308594 
	C542.917175,118.085236 542.910522,117.772217 542.903809,117.459198 
	C542.793701,116.980591 542.683533,116.501984 542.747986,115.374458 
	C542.942017,114.156647 542.961365,113.587746 542.980774,113.018852 
	C542.980774,113.018852 542.990479,113.009460 542.994019,113.005447 
z"/>
<path fill="#743EBB" opacity="1.000000" stroke="none" 
	d="
M107.068924,89.963615 
	C107.068924,89.963615 107.056442,89.626060 107.034851,89.458603 
	C120.041458,89.193802 133.069656,89.096458 146.560974,89.287552 
	C147.024078,89.575989 147.025558,89.982773 146.767166,89.991928 
	C146.336731,90.007538 146.164703,90.013992 145.529968,90.014435 
	C141.044281,90.011757 137.021286,90.015083 132.535309,90.012291 
	C128.048355,90.008537 124.024422,90.010902 119.537521,90.008484 
	C115.072678,89.990341 111.070801,89.976982 107.068924,89.963615 
z"/>
<path fill="#6F35BB" opacity="1.000000" stroke="none" 
	d="
M242.986664,113.014542 
	C241.428665,112.196648 239.908432,111.357201 238.388214,110.517754 
	C238.439484,110.252022 238.490753,109.986298 238.542023,109.720566 
	C242.975815,109.720566 247.409607,109.720566 253.055496,109.720566 
	C251.062729,111.086975 249.857437,111.913429 248.310211,112.863106 
	C247.968292,112.986328 247.874969,112.923500 247.844696,112.568497 
	C245.898788,110.259483 244.260757,110.078300 243.100998,112.951530 
	C243.100998,112.951530 243.024460,112.992973 242.986664,113.014542 
z"/>
<path fill="#6F35BB" opacity="1.000000" stroke="none" 
	d="
M234.324142,144.857788 
	C233.775467,143.815781 233.489090,142.547150 232.893829,141.169586 
	C233.854233,137.834229 235.123535,134.607834 236.651520,131.151367 
	C236.910202,130.921310 237.019669,131.023407 237.076202,131.369827 
	C237.712219,132.101608 238.291718,132.486969 238.871216,132.872314 
	C238.871216,132.872314 238.977905,132.977676 239.031403,133.030212 
	C238.527313,134.544708 237.969757,136.006683 237.166763,137.452026 
	C236.618179,137.110138 236.315018,136.784897 236.011856,136.459641 
	C235.830582,136.671646 235.649307,136.883652 235.468033,137.095657 
	C235.979965,137.398575 236.491882,137.701492 237.003815,138.004410 
	C236.198013,140.213333 235.392227,142.422256 234.324142,144.857788 
z"/>
<path fill="#6F35BB" opacity="1.000000" stroke="none" 
	d="
M359.626495,120.103226 
	C359.280731,122.760956 357.915344,125.680389 358.149536,128.465286 
	C358.569977,133.464218 359.951447,138.382324 360.949677,143.720383 
	C355.458496,136.514465 355.552917,128.536209 359.626495,120.103226 
z"/>
<path fill="#6124B1" opacity="1.000000" stroke="none" 
	d="
M147.025558,89.982773 
	C147.025558,89.982773 147.024078,89.575989 147.024323,89.372589 
	C157.488510,89.212936 167.952438,89.256668 178.672577,89.629196 
	C172.599396,89.973892 166.269974,89.989792 159.011536,90.005020 
	C154.396851,89.997154 150.711197,89.989967 147.025558,89.982773 
z"/>
<path fill="#6D35B5" opacity="1.000000" stroke="none" 
	d="
M449.369446,111.952606 
	C447.261108,111.927544 445.451965,111.826401 443.312805,111.867081 
	C441.433990,111.641022 439.885223,111.273125 438.336426,110.905228 
	C438.343048,110.662987 438.349670,110.420753 438.356262,110.178513 
	C443.139282,110.178513 447.922302,110.178513 453.669739,110.178513 
	C451.755646,110.990829 450.712158,111.433670 449.369446,111.952606 
z"/>
<path fill="#A574E5" opacity="1.000000" stroke="none" 
	d="
M415.264374,115.291687 
	C415.378265,114.822113 415.770905,114.880646 415.927917,115.414322 
	C416.104523,125.626907 416.124115,135.305817 416.143738,144.984726 
	C416.143738,144.984726 415.771606,145.121521 415.575806,145.152115 
	C415.303528,135.375565 415.227020,125.568413 415.264374,115.291687 
z"/>
<path fill="#6D35B5" opacity="1.000000" stroke="none" 
	d="
M443.942993,113.503227 
	C444.311157,115.390282 444.943207,117.740936 444.953400,120.094276 
	C444.982330,126.799614 444.757996,133.506042 444.336945,140.142975 
	C444.001373,131.371964 443.962158,122.670006 443.942993,113.503227 
z"/>
<path fill="#6F35BB" opacity="1.000000" stroke="none" 
	d="
M515.394287,112.939972 
	C518.371460,112.643440 517.131836,114.804588 516.370728,116.021584 
	C514.656860,118.762207 512.597290,121.286621 510.335510,123.948196 
	C511.916016,120.359756 513.839417,116.722130 515.394287,112.939972 
z"/>
<path fill="#7139BB" opacity="1.000000" stroke="none" 
	d="
M569.200745,147.719009 
	C568.440979,147.555328 567.874451,147.107956 567.186890,146.412567 
	C567.927002,144.587036 568.788025,143.009521 569.649109,141.432007 
	C570.171021,141.692749 570.692993,141.953491 571.214966,142.214233 
	C570.607910,143.954605 570.000916,145.694962 569.200745,147.719009 
z"/>
<path fill="#7139BB" opacity="1.000000" stroke="none" 
	d="
M293.360596,114.826157 
	C293.434998,117.820335 293.211609,121.002472 292.964233,124.634125 
	C290.690216,121.699265 291.198853,118.348450 293.360596,114.826157 
z"/>
<path fill="#7139BB" opacity="1.000000" stroke="none" 
	d="
M314.743713,148.143890 
	C314.691864,144.478561 314.896790,140.603302 315.079224,136.321747 
	C318.512360,139.937881 317.576050,143.939758 314.743713,148.143890 
z"/>
<path fill="#743EBB" opacity="1.000000" stroke="none" 
	d="
M547.981567,113.462402 
	C548.010986,112.996704 548.502991,112.999901 548.748779,113.006218 
	C548.770325,118.003784 548.546082,122.995033 548.320068,128.436264 
	C548.196228,123.900192 548.074219,118.914146 547.981567,113.462402 
z"/>
<path fill="#743EBB" opacity="1.000000" stroke="none" 
	d="
M548.524170,147.390213 
	C548.345886,143.175720 548.179016,138.512131 548.151978,133.495483 
	C548.373047,137.742004 548.454346,142.341553 548.524170,147.390213 
z"/>
<path fill="#743EBB" opacity="1.000000" stroke="none" 
	d="
M541.854675,149.621719 
	C542.107483,149.801437 542.047424,150.138840 541.665039,150.767700 
	C540.897766,151.610428 540.452759,152.161697 540.007690,152.712982 
	C539.092224,152.565994 538.176758,152.419006 537.261292,152.272003 
	C537.251221,151.955750 537.241150,151.639511 537.231079,151.323257 
	C538.668030,150.808640 540.104919,150.294022 541.854675,149.621719 
z"/>
<path fill="#6F35BB" opacity="1.000000" stroke="none" 
	d="
M496.340729,115.881165 
	C496.795227,112.405113 499.285065,111.778862 502.724548,112.605614 
	C500.869507,113.799461 498.759918,114.756020 496.340729,115.881165 
z"/>
<path fill="#7139BB" opacity="1.000000" stroke="none" 
	d="
M311.920105,132.647522 
	C309.849121,131.737076 307.613800,130.530975 305.292816,128.984772 
	C307.390015,129.880402 309.572876,131.116135 311.920105,132.647522 
z"/>
<path fill="#7139BB" opacity="1.000000" stroke="none" 
	d="
M548.598877,151.050110 
	C548.766113,151.437332 548.550781,151.806717 548.221008,152.359833 
	C547.008728,152.609924 545.910889,152.676270 544.401001,152.482269 
	C543.988831,152.221909 543.937317,151.904251 543.937317,151.904236 
	C545.363708,151.613571 546.790039,151.322906 548.598877,151.050110 
z"/>
<path fill="#7139BB" opacity="1.000000" stroke="none" 
	d="
M553.310486,152.733582 
	C552.850586,152.129974 552.748596,151.605881 552.646606,151.081787 
	C554.689636,151.330704 556.732605,151.579620 558.991089,152.215271 
	C557.360474,152.672363 555.514465,152.742722 553.310486,152.733582 
z"/>
<path fill="#7139BB" opacity="1.000000" stroke="none" 
	d="
M311.484924,142.479599 
	C311.454102,143.694321 311.340668,145.255081 310.970459,146.922913 
	C310.943268,145.628540 311.172821,144.227097 311.484924,142.479599 
z"/>
<path fill="#6F35BB" opacity="1.000000" stroke="none" 
	d="
M232.208099,149.648743 
	C232.493973,148.394943 232.997864,146.892303 233.796127,145.210083 
	C233.535706,146.486954 232.980896,147.943436 232.208099,149.648743 
z"/>
<path fill="#6F35BB" opacity="1.000000" stroke="none" 
	d="
M248.014282,113.018723 
	C247.500854,114.196350 246.941452,115.341576 246.157349,116.720741 
	C245.932648,116.954681 245.874786,116.916702 245.912567,116.578941 
	C246.591888,115.135284 247.233429,114.029388 247.874969,112.923492 
	C247.874969,112.923500 247.968292,112.986328 248.014282,113.018723 
z"/>
<path fill="#6F35BB" opacity="1.000000" stroke="none" 
	d="
M514.311768,127.010040 
	C514.612122,126.162354 515.157776,125.158234 515.988525,124.061890 
	C515.701477,124.930992 515.129272,125.892296 514.311768,127.010040 
z"/>
<path fill="#6F35BB" opacity="1.000000" stroke="none" 
	d="
M509.733032,124.153381 
	C509.548981,124.957413 509.101776,125.923180 508.306335,126.932487 
	C508.462036,126.089058 508.965973,125.202087 509.733032,124.153381 
z"/>
<path fill="#6F35BB" opacity="1.000000" stroke="none" 
	d="
M245.961700,116.973495 
	C245.522339,118.211227 245.053925,119.430153 244.337616,120.865036 
	C244.089752,121.081001 243.984650,120.977623 243.974915,120.594353 
	C244.601700,119.112961 245.238251,118.014832 245.874786,116.916702 
	C245.874786,116.916702 245.932648,116.954681 245.961700,116.973495 
z"/>
<path fill="#6C2AC3" opacity="1.000000" stroke="none" 
	d="
M238.870651,126.115662 
	C239.497238,126.414268 240.008224,126.822723 240.519196,127.231178 
	C240.022339,127.181290 239.525482,127.131409 238.875061,126.812096 
	C238.721497,126.542671 238.755051,126.225502 238.870651,126.115662 
z"/>
<path fill="#6F35BB" opacity="1.000000" stroke="none" 
	d="
M523.550049,113.191139 
	C523.538818,112.379616 523.810608,111.425064 524.228577,110.119644 
	C524.194214,110.861893 524.013672,111.954994 523.550049,113.191139 
z"/>
<path fill="#7139BB" opacity="1.000000" stroke="none" 
	d="
M309.960297,138.356445 
	C310.430298,138.581192 310.983154,139.077988 311.326538,139.763641 
	C310.759094,139.511169 310.401123,139.069839 309.960297,138.356445 
z"/>
<path fill="#6F35BB" opacity="1.000000" stroke="none" 
	d="
M517.460083,122.368561 
	C517.670410,121.499084 518.170593,120.447746 519.019897,119.315002 
	C518.829285,120.217972 518.289612,121.202339 517.460083,122.368561 
z"/>
<path fill="#7139BB" opacity="1.000000" stroke="none" 
	d="
M540.335571,152.789490 
	C540.452759,152.161697 540.897766,151.610428 541.629883,151.022644 
	C541.916931,150.986130 541.980408,151.464996 541.989746,151.897369 
	C541.999084,152.329758 541.992310,152.712311 541.992310,152.712311 
	C541.549377,152.763535 541.106384,152.814774 540.335571,152.789490 
z"/>
<path fill="#6F35BB" opacity="1.000000" stroke="none" 
	d="
M521.459778,116.368256 
	C521.670593,115.499168 522.171021,114.448013 523.020630,113.315750 
	C522.829712,114.218483 522.289551,115.202339 521.459778,116.368256 
z"/>
<path fill="#7139BB" opacity="1.000000" stroke="none" 
	d="
M305.139740,128.475800 
	C304.321991,128.270645 303.339844,127.787643 302.287537,126.973534 
	C303.136719,127.160942 304.056030,127.679459 305.139740,128.475800 
z"/>
<path fill="#6F35BB" opacity="1.000000" stroke="none" 
	d="
M507.694092,127.101318 
	C507.497345,127.880875 507.021698,128.803802 506.244751,129.856613 
	C506.434052,129.072556 506.924622,128.158630 507.694092,127.101318 
z"/>
<path fill="#7139BB" opacity="1.000000" stroke="none" 
	d="
M363.785370,147.578247 
	C364.351929,147.709366 365.041595,148.120239 365.829865,148.838196 
	C365.255127,148.716187 364.581818,148.287109 363.785370,147.578247 
z"/>
<path fill="#7139BB" opacity="1.000000" stroke="none" 
	d="
M296.800049,129.573456 
	C297.356323,129.681381 298.050049,130.060989 298.874908,130.726013 
	C298.316528,130.622650 297.626984,130.233871 296.800049,129.573456 
z"/>
<path fill="#7139BB" opacity="1.000000" stroke="none" 
	d="
M361.893066,145.358841 
	C362.441040,145.599670 363.070129,146.140167 363.705078,147.010559 
	C363.132019,146.779800 362.553101,146.219147 361.893066,145.358841 
z"/>
<path fill="#7139BB" opacity="1.000000" stroke="none" 
	d="
M299.879089,124.736328 
	C299.376129,124.527924 298.731659,124.064903 298.059570,123.273636 
	C298.600525,123.457512 299.169037,123.969620 299.879089,124.736328 
z"/>
<path fill="#6F35BB" opacity="1.000000" stroke="none" 
	d="
M363.631470,114.942451 
	C363.461395,115.500168 362.991638,116.137444 362.236267,116.885513 
	C362.411011,116.338211 362.871399,115.680107 363.631470,114.942451 
z"/>
<path fill="#7139BB" opacity="1.000000" stroke="none" 
	d="
M292.954285,125.342514 
	C293.509735,125.590981 294.106445,126.146049 294.704895,127.023514 
	C294.136292,126.780319 293.565918,126.214722 292.954285,125.342514 
z"/>
<path fill="#7139BB" opacity="1.000000" stroke="none" 
	d="
M294.739380,127.585236 
	C295.323517,127.757851 296.006073,128.218109 296.699554,129.016693 
	C296.086243,128.860962 295.462006,128.366928 294.739380,127.585236 
z"/>
<path fill="#7139BB" opacity="1.000000" stroke="none" 
	d="
M302.161072,126.474594 
	C301.625214,126.341797 300.940735,125.947861 300.130127,125.267326 
	C300.673492,125.391647 301.342987,125.802559 302.161072,126.474594 
z"/>
<path fill="#743EBB" opacity="1.000000" stroke="none" 
	d="
M542.745850,113.011368 
	C542.961365,113.587746 542.942017,114.156647 542.881226,115.153809 
	C542.582947,114.954926 542.325989,114.327774 542.055054,113.350975 
	C542.041016,113.001320 542.510986,113.003876 542.745850,113.011368 
z"/>
<path fill="#743EBB" opacity="1.000000" stroke="none" 
	d="
M542.331299,152.781616 
	C541.992310,152.712311 541.999084,152.329758 542.010010,152.138077 
	C542.447327,151.946228 542.873779,151.946075 543.618774,151.925079 
	C543.937317,151.904251 543.988831,152.221909 543.998779,152.382370 
	C543.562561,152.645523 543.116394,152.748215 542.331299,152.781616 
z"/>
<path fill="#9365CF" opacity="1.000000" stroke="none" 
	d="
M523.259644,152.735550 
	C523.431152,152.405365 523.890930,152.194992 524.612366,151.961487 
	C524.432007,152.244019 523.989929,152.549698 523.259644,152.735550 
z"/>
<path fill="#6F35BB" opacity="1.000000" stroke="none" 
	d="
M495.179840,117.769844 
	C495.177856,117.434174 495.355896,116.877747 495.794342,116.169586 
	C495.823120,116.528275 495.591492,117.038681 495.179840,117.769844 
z"/>
<path fill="#6F35BB" opacity="1.000000" stroke="none" 
	d="
M504.878723,131.429169 
	C504.857178,131.743927 504.633057,132.238113 504.157349,132.853271 
	C504.162537,132.519028 504.419312,132.063812 504.878723,131.429169 
z"/>
<path fill="#7139BB" opacity="1.000000" stroke="none" 
	d="
M367.192413,150.226013 
	C367.563690,150.173477 368.125000,150.352509 368.851654,150.786560 
	C368.472137,150.846924 367.927307,150.652252 367.192413,150.226013 
z"/>
<path fill="#6F35BB" opacity="1.000000" stroke="none" 
	d="
M519.530640,119.264099 
	C519.482727,118.934853 519.649902,118.525864 520.046753,118.041275 
	C520.099548,118.371910 519.922668,118.778137 519.530640,119.264099 
z"/>
<path fill="#7139BB" opacity="1.000000" stroke="none" 
	d="
M304.159912,134.249481 
	C304.523438,134.204117 305.098328,134.371552 305.842194,134.797272 
	C305.464569,134.857803 304.917908,134.660049 304.159912,134.249481 
z"/>
<path fill="#7139BB" opacity="1.000000" stroke="none" 
	d="
M306.571289,135.429321 
	C306.923157,135.428436 307.395844,135.660446 307.952148,136.160645 
	C307.587830,136.173309 307.139984,135.917770 306.571289,135.429321 
z"/>
<path fill="#6F35BB" opacity="1.000000" stroke="none" 
	d="
M231.776596,142.076996 
	C232.130417,142.227798 232.245041,142.442932 232.359650,142.658081 
	C231.998810,142.614365 231.637970,142.570663 231.160217,142.352036 
	C231.043304,142.177124 231.537399,142.141342 231.776596,142.076996 
z"/>
<path fill="#743EBB" opacity="1.000000" stroke="none" 
	d="
M542.771362,141.912064 
	C542.908386,142.176254 542.929810,142.678253 542.885620,143.418701 
	C542.765198,143.154709 542.710449,142.652298 542.771362,141.912064 
z"/>
<path fill="#7139BB" opacity="1.000000" stroke="none" 
	d="
M315.019867,135.698456 
	C314.804260,135.765625 314.518127,135.571884 314.146179,135.126648 
	C314.356659,135.062622 314.653015,135.250076 315.019867,135.698456 
z"/>
<path fill="#6F35BB" opacity="1.000000" stroke="none" 
	d="
M524.142578,109.409775 
	C524.295776,109.609344 523.829041,109.758904 523.829041,109.758904 
	C523.829041,109.758904 523.360718,109.614983 523.191772,109.438988 
	C523.345032,109.245399 523.667236,109.227806 524.142578,109.409775 
z"/>
<path fill="#8648D7" opacity="1.000000" stroke="none" 
	d="
M182.124252,171.127228 
	C181.973541,171.457077 181.763962,171.728485 181.305328,172.086060 
	C181.056259,172.172211 181.057007,171.996735 181.151047,171.725891 
	C181.435516,171.230423 181.667938,171.064545 181.942337,170.957428 
	C181.942337,170.957428 182.065369,171.068787 182.124252,171.127228 
z"/>
<path fill="#7139BB" opacity="1.000000" stroke="none" 
	d="
M308.936859,137.310913 
	C309.139801,137.243408 309.442871,137.429474 309.842834,137.871826 
	C309.638794,137.940262 309.337891,137.752380 308.936859,137.310913 
z"/>
<path fill="#9365CF" opacity="1.000000" stroke="none" 
	d="
M493.822968,152.687561 
	C493.929138,152.474350 494.262054,152.382111 494.811615,152.452576 
	C494.702057,152.679703 494.375916,152.744125 493.822968,152.687561 
z"/>
<path fill="#7139BB" opacity="1.000000" stroke="none" 
	d="
M299.625916,131.446014 
	C299.846558,131.323608 300.238983,131.460098 300.784241,131.878189 
	C300.557251,132.008179 300.177490,131.856537 299.625916,131.446014 
z"/>
<path fill="#9365CF" opacity="1.000000" stroke="none" 
	d="
M492.122437,151.238525 
	C492.381409,151.214371 492.600555,151.465271 492.831970,151.971115 
	C492.590363,151.988571 492.336487,151.751068 492.122437,151.238525 
z"/>
<path fill="#7139BB" opacity="1.000000" stroke="none" 
	d="
M300.953125,132.340118 
	C301.150574,132.244308 301.455200,132.398834 301.884155,132.784058 
	C301.692413,132.873322 301.376373,132.731888 300.953125,132.340118 
z"/>
<path fill="#7139BB" opacity="1.000000" stroke="none" 
	d="
M365.960022,149.337387 
	C366.162933,149.234787 366.465424,149.384583 366.886749,149.765106 
	C366.690247,149.860489 366.374939,149.725128 365.960022,149.337387 
z"/>
<path fill="#7139BB" opacity="1.000000" stroke="none" 
	d="
M313.648926,149.303802 
	C313.548218,149.052734 313.676392,148.715042 314.104462,148.396942 
	C314.340302,148.756729 314.164795,149.023605 313.648926,149.303802 
z"/>
<path fill="#743EBB" opacity="1.000000" stroke="none" 
	d="
M542.758118,117.670174 
	C542.910522,117.772217 542.917175,118.085236 542.907715,118.869659 
	C542.798584,118.854424 542.705505,118.367783 542.758118,117.670174 
z"/>
<path fill="#6F35BB" opacity="1.000000" stroke="none" 
	d="
M360.559509,118.640144 
	C360.692535,118.861099 360.563599,119.250046 360.163330,119.799957 
	C360.027222,119.576660 360.162415,119.192398 360.559509,118.640144 
z"/>
<path fill="#7139BB" opacity="1.000000" stroke="none" 
	d="
M302.628357,133.448486 
	C302.842651,133.304062 303.233429,133.419495 303.801880,133.791382 
	C303.587982,133.934677 303.196411,133.821518 302.628357,133.448486 
z"/>
<path fill="#6D35B5" opacity="1.000000" stroke="none" 
	d="
M441.894592,147.369370 
	C442.119904,147.347366 442.436188,147.630417 442.804047,148.240662 
	C442.565613,148.270050 442.275604,147.972244 441.894592,147.369370 
z"/>
<path fill="#7139BB" opacity="1.000000" stroke="none" 
	d="
M313.035889,133.682465 
	C312.829132,133.758850 312.533691,133.580048 312.138275,133.155426 
	C312.341278,133.082169 312.644257,133.254730 313.035889,133.682465 
z"/>
<path fill="#7139BB" opacity="1.000000" stroke="none" 
	d="
M314.037933,134.683258 
	C313.829285,134.752533 313.534180,134.566650 313.149414,134.127441 
	C313.357025,134.058777 313.654236,134.243439 314.037933,134.683258 
z"/>
<path fill="#6124B1" opacity="1.000000" stroke="none" 
	d="
M418.980469,148.953583 
	C418.630798,145.892975 418.103027,142.831879 418.040588,139.761353 
	C417.902222,132.957825 417.997559,126.149567 418.936798,119.330559 
	C418.936798,128.883347 418.936798,138.436127 418.946411,148.451416 
	C418.956024,148.913925 419.013489,148.948837 418.980469,148.953583 
z"/>
<path fill="#6124B1" opacity="1.000000" stroke="none" 
	d="
M416.406311,144.668732 
	C416.124115,135.305817 416.104523,125.626907 416.114502,115.482071 
	C416.429382,119.709419 416.877747,124.400002 416.955811,129.096725 
	C417.040314,134.179077 416.779297,139.267166 416.406311,144.668732 
z"/>
<path fill="#F7EBFE" opacity="1.000000" stroke="none" 
	d="
M121.800255,129.975235 
	C121.048813,123.089493 122.231506,117.215614 130.285736,114.329887 
	C132.180832,113.264931 133.590805,112.552940 135.331436,111.765274 
	C139.898605,107.574791 144.307617,108.361298 148.835785,111.218307 
	C148.881744,111.209091 148.808426,111.150696 148.902466,111.399261 
	C149.319626,111.771675 149.642731,111.895523 149.978333,112.013733 
	C149.990814,112.008095 149.991089,112.035370 150.143982,112.287613 
	C150.840500,112.741058 151.384125,112.942268 151.947067,113.097229 
	C151.966370,113.050980 151.875870,113.094078 151.970276,113.328018 
	C152.369858,113.670212 152.675018,113.778458 153.247955,114.113266 
	C156.505722,116.265259 159.495712,118.190681 162.485718,120.116104 
	C162.409744,125.885033 162.063583,131.667618 162.354141,137.418015 
	C162.543381,141.163376 161.627121,143.780090 157.684967,145.551544 
	C157.277359,145.858765 156.994537,146.053680 156.705353,146.083710 
	C156.138840,146.374298 155.861496,146.634857 155.410416,146.912674 
	C155.236664,146.929947 154.970276,147.155762 154.730453,147.188049 
	C154.169037,147.365387 153.976425,147.611450 153.953568,147.962860 
	C153.994324,147.967194 153.938385,147.907257 153.612701,147.959290 
	C152.392838,148.638550 151.498688,149.265793 150.262436,149.919144 
	C146.964188,151.243622 144.008041,152.542007 140.846741,153.568466 
	C138.624512,152.169754 136.687225,150.855133 134.572998,149.957001 
	C130.707352,148.314911 129.438751,145.692734 129.750732,141.464035 
	C130.150009,136.051956 129.731018,130.579483 129.753387,124.843567 
	C129.942337,124.167557 130.042526,123.781006 130.373383,123.286194 
	C130.739807,123.075829 130.875580,122.973717 131.281265,122.849159 
	C131.822464,122.599770 132.093735,122.372826 132.619797,121.917297 
	C134.162201,121.020813 135.636154,120.568428 136.703415,119.645676 
	C140.270493,116.561584 143.668930,116.586960 147.169785,119.683800 
	C147.775467,120.219574 148.597702,120.512924 149.325546,120.907860 
	C155.493637,124.254799 157.316467,133.926254 152.500854,139.714432 
	C150.422424,140.752945 148.510635,141.472107 147.002548,142.690826 
	C143.395187,145.606018 140.192886,145.294907 137.124344,141.566864 
	C137.151184,137.079163 137.144974,133.056793 137.398087,128.815704 
	C140.024490,126.843727 142.342560,124.631424 145.284973,127.742264 
	C140.629486,131.921387 140.165176,133.693115 142.162750,140.530106 
	C143.961899,139.626602 145.720566,138.820847 147.405563,137.882812 
	C152.582794,135.000641 152.400574,127.885880 147.652710,124.301369 
	C142.587448,120.477211 138.844009,122.664749 134.547913,126.056808 
	C134.420822,132.568954 134.668518,138.832397 134.952484,145.055771 
	C134.988770,145.015686 134.891556,145.063034 134.987976,145.292633 
	C135.319870,145.797363 135.617661,145.916092 136.231964,146.082672 
	C137.643860,146.862854 138.801605,147.438797 140.179779,148.298248 
	C141.708954,148.429489 143.017685,148.277222 144.661499,148.062653 
	C147.984756,146.256119 150.972961,144.511871 154.306000,142.669952 
	C157.034149,140.871307 157.967606,138.755692 158.464615,135.656998 
	C160.143677,125.188591 156.800690,118.149094 146.409912,114.941605 
	C146.104263,114.847252 145.855713,114.454697 145.566635,114.437691 
	C143.283844,114.303436 140.644363,113.449654 138.786301,114.294479 
	C134.947739,116.039795 131.524979,118.699570 127.541962,121.112869 
	C126.755081,122.746552 126.043373,124.244659 126.014923,125.755630 
	C125.900604,131.827408 125.997749,137.903137 125.794762,144.107880 
	C124.413940,143.826736 123.255104,143.415131 122.052948,142.541626 
	C121.939842,138.044891 121.870049,134.010056 121.800255,129.975235 
z"/>
<path fill="#7932D5" opacity="1.000000" stroke="none" 
	d="
M162.666687,120.388596 
	C159.495712,118.190681 156.505722,116.265259 153.122650,113.910156 
	C152.498505,113.233536 152.213943,113.104729 151.875870,113.094078 
	C151.875870,113.094078 151.966370,113.050980 151.816895,112.820267 
	C151.108643,112.404816 150.549866,112.220093 149.991089,112.035370 
	C149.991089,112.035370 149.990814,112.008095 149.860443,111.783691 
	C149.422852,111.423096 149.115646,111.286896 148.808426,111.150696 
	C148.808426,111.150696 148.881744,111.209091 148.899780,110.835968 
	C146.541153,107.071419 144.297928,103.575760 141.751846,100.316711 
	C138.980591,96.769417 135.928162,93.441803 132.998306,90.018410 
	C137.021286,90.015083 141.044281,90.011757 145.536652,90.377396 
	C146.800369,92.127136 147.345047,93.754616 148.427780,94.850456 
	C158.988358,105.538887 169.619507,116.158043 180.295731,126.731102 
	C181.289917,127.715691 182.731964,128.248062 183.966064,128.990402 
	C183.970642,133.013718 183.975220,137.037018 183.630783,141.489960 
	C178.610336,137.202515 174.037399,132.381210 169.214661,127.824310 
	C167.501801,126.205872 165.181519,125.230331 163.138519,123.961304 
	C163.041565,122.861229 162.944611,121.761154 162.666687,120.388596 
z"/>
<path fill="#742AD3" opacity="1.000000" stroke="none" 
	d="
M183.976074,128.528290 
	C182.731964,128.248062 181.289917,127.715691 180.295731,126.731102 
	C169.619507,116.158043 158.988358,105.538887 148.427780,94.850456 
	C147.345047,93.754616 146.800369,92.127136 145.999359,90.383392 
	C146.164703,90.013992 146.336731,90.007538 146.767166,89.991928 
	C150.711197,89.989967 154.396851,89.997154 158.543472,90.012589 
	C159.287613,91.107437 159.220978,92.548035 159.907516,93.226456 
	C167.633850,100.861374 175.475906,108.379189 183.628098,115.962196 
	C183.974899,120.019356 183.980499,124.042778 183.976074,128.528290 
z"/>
<path fill="#8949DC" opacity="1.000000" stroke="none" 
	d="
M156.994537,146.053680 
	C156.994537,146.053680 157.277359,145.858765 157.447891,145.847076 
	C160.984100,148.295517 164.597580,150.484344 167.657425,153.279282 
	C172.260818,157.484131 176.540268,162.053848 180.799606,166.615814 
	C181.578049,167.449585 181.603638,168.986252 181.959534,170.577942 
	C181.667938,171.064545 181.435516,171.230423 181.137833,171.639191 
	C178.317230,171.887802 175.603882,171.952301 172.410294,171.668213 
	C167.298401,166.391479 162.610947,161.514069 158.062317,156.510452 
	C156.219025,154.482788 154.678375,152.180023 153.249832,149.824692 
	C153.645905,149.067032 153.792145,148.487152 153.938385,147.907257 
	C153.938385,147.907257 153.994324,147.967194 154.173553,147.892792 
	C154.637497,147.671005 154.843323,147.450134 154.970276,147.155762 
	C154.970276,147.155762 155.236664,146.929947 155.698532,146.870300 
	C156.438446,146.558319 156.716492,146.306000 156.994537,146.053680 
z"/>
<path fill="#7E3AD7" opacity="1.000000" stroke="none" 
	d="
M163.099274,124.420349 
	C165.181519,125.230331 167.501801,126.205872 169.214661,127.824310 
	C174.037399,132.381210 178.610336,137.202515 183.624146,141.952240 
	C183.966537,144.874054 183.966537,147.763168 183.966537,151.799789 
	C181.806335,150.493546 180.649918,150.015396 179.771973,149.227097 
	C174.509140,144.501678 168.828995,140.108017 164.327896,134.732925 
	C162.536972,132.594223 163.403397,128.230270 163.099274,124.420349 
z"/>
<path fill="#8341DB" opacity="1.000000" stroke="none" 
	d="
M135.000778,111.840942 
	C133.590805,112.552940 132.180832,113.264931 130.427429,114.008713 
	C128.833923,113.304718 127.376114,112.781807 126.367943,111.798080 
	C120.528389,106.100220 114.752106,100.335243 109.066856,94.483727 
	C108.106422,93.495209 107.692818,91.975395 107.047737,90.332336 
	C111.070801,89.976982 115.072678,89.990341 119.541397,90.372231 
	C123.726318,95.047974 127.656158,99.195442 131.075272,103.728165 
	C132.849915,106.080811 133.721329,109.114761 135.000778,111.840942 
z"/>
<path fill="#8F51E0" opacity="1.000000" stroke="none" 
	d="
M101.058411,113.999084 
	C101.046989,110.642082 101.035576,107.285088 101.043091,103.472092 
	C102.607887,103.420837 104.636436,103.339470 105.617210,104.313316 
	C110.196724,108.860542 114.865829,113.417763 118.693184,118.572609 
	C120.210060,120.615608 119.628044,124.216980 119.648331,127.519730 
	C114.995918,124.253189 110.764465,120.491814 106.361214,116.943634 
	C104.809975,115.693619 102.838181,114.965500 101.058411,113.999084 
z"/>
<path fill="#9257E0" opacity="1.000000" stroke="none" 
	d="
M101.041702,114.443665 
	C102.838181,114.965500 104.809975,115.693619 106.361214,116.943634 
	C110.764465,120.491814 114.995918,124.253189 119.647507,127.963486 
	C120.399536,128.625336 120.799072,129.254349 121.499435,129.929291 
	C121.870049,134.010056 121.939842,138.044891 121.673187,142.473541 
	C120.200920,140.745926 119.451950,138.256516 117.853050,136.575562 
	C113.870041,132.388153 109.548584,128.515137 105.254608,124.635880 
	C104.049477,123.547142 102.468552,122.874359 101.060005,122.010780 
	C101.048332,119.636597 101.036659,117.262421 101.041702,114.443665 
z"/>
<path fill="#9E65E7" opacity="1.000000" stroke="none" 
	d="
M101.385277,153.022980 
	C101.036026,148.961197 101.034668,144.942978 101.428284,140.462769 
	C104.248894,141.200409 107.139580,141.907532 109.020721,143.683792 
	C117.776207,151.951172 126.274559,160.492203 134.787628,169.012512 
	C135.489990,169.715454 135.614380,170.995850 136.007324,172.007935 
	C136.007324,172.007935 135.993637,172.492722 135.979538,172.734528 
	C127.226532,174.258209 120.396805,171.542694 114.693481,164.469833 
	C111.133896,160.055481 106.103523,156.827133 101.385277,153.022980 
z"/>
<path fill="#6124B1" opacity="1.000000" stroke="none" 
	d="
M334.981934,147.683746 
	C334.702972,143.087036 334.291412,138.006897 334.222198,132.922073 
	C334.143219,127.122490 334.369232,121.318733 334.713867,115.169662 
	C334.976868,125.614433 334.988708,136.406326 334.981934,147.683746 
z"/>
<path fill="#FDFBFF" opacity="1.000000" stroke="none" 
	d="
M389.084167,143.826630 
	C382.745087,151.213257 378.374268,152.008469 370.305969,147.459076 
	C369.968750,147.350052 369.804565,147.000671 369.516998,146.624359 
	C368.620239,145.700165 368.011047,145.152283 367.401855,144.604401 
	C367.401855,144.604401 367.154694,144.929672 367.200256,144.474991 
	C366.547089,142.957733 365.848389,141.895172 365.149658,140.832596 
	C365.149658,140.832596 365.102692,140.917419 365.109528,140.576294 
	C364.827606,139.623413 364.538849,139.011658 364.250122,138.399887 
	C364.250122,138.399887 364.308105,138.171753 364.206024,137.665527 
	C364.122437,132.126038 364.140930,127.092751 364.159424,122.059471 
	C364.159424,122.059471 364.064484,122.052200 364.345825,121.919373 
	C364.788544,121.204132 364.949951,120.621712 365.111359,120.039299 
	C365.111359,120.039299 365.024872,120.032471 365.294708,119.874504 
	C365.756134,119.141365 365.947723,118.566185 366.139343,117.991013 
	C366.457977,117.536331 366.776611,117.081642 367.199585,116.366562 
	C373.909241,110.646889 377.891174,110.465187 385.698273,115.421127 
	C392.746857,121.909355 393.809235,138.167801 389.084167,143.826630 
z"/>
<path fill="#6F35BB" opacity="1.000000" stroke="none" 
	d="
M363.835815,122.269363 
	C364.140930,127.092751 364.122437,132.126038 364.121460,137.583679 
	C360.433228,132.972916 361.748749,127.735130 363.835815,122.269363 
z"/>
<path fill="#7139BB" opacity="1.000000" stroke="none" 
	d="
M365.124817,141.190353 
	C365.848389,141.895172 366.547089,142.957733 367.341400,144.327332 
	C366.657959,143.605621 365.878967,142.576874 365.124817,141.190353 
z"/>
<path fill="#7139BB" opacity="1.000000" stroke="none" 
	d="
M367.380859,144.954514 
	C368.011047,145.152283 368.620239,145.700165 369.343048,146.540710 
	C368.757721,146.323776 368.058807,145.814209 367.380859,144.954514 
z"/>
<path fill="#6F35BB" opacity="1.000000" stroke="none" 
	d="
M364.192932,138.773376 
	C364.538849,139.011658 364.827606,139.623413 365.157837,140.580383 
	C364.844757,140.332703 364.490234,139.739792 364.192932,138.773376 
z"/>
<path fill="#6F35BB" opacity="1.000000" stroke="none" 
	d="
M365.859314,118.150223 
	C365.947723,118.566185 365.756134,119.141365 365.321533,119.908585 
	C365.245483,119.503571 365.412384,118.906502 365.859314,118.150223 
z"/>
<path fill="#6F35BB" opacity="1.000000" stroke="none" 
	d="
M364.835022,120.195625 
	C364.949951,120.621712 364.788544,121.204132 364.371857,121.959229 
	C364.263947,121.538597 364.411316,120.945274 364.835022,120.195625 
z"/>
<path fill="#985DE4" opacity="1.000000" stroke="none" 
	d="
M136.475098,172.007812 
	C135.614380,170.995850 135.489990,169.715454 134.787628,169.012512 
	C126.274559,160.492203 117.776207,151.951172 109.020721,143.683792 
	C107.139580,141.907532 104.248894,141.200409 101.441452,139.999786 
	C101.049049,134.313797 101.038452,128.628815 101.043930,122.477310 
	C102.468552,122.874359 104.049477,123.547142 105.254608,124.635880 
	C109.548584,128.515137 113.870041,132.388153 117.853050,136.575562 
	C119.451950,138.256516 120.200920,140.745926 121.716499,142.935440 
	C123.255104,143.415131 124.413940,143.826736 126.118904,144.163300 
	C127.327255,144.687531 127.989471,145.286804 128.664734,145.897903 
	C128.999023,138.955994 129.331833,132.044510 129.664642,125.133034 
	C129.731018,130.579483 130.150009,136.051956 129.750732,141.464035 
	C129.438751,145.692734 130.707352,148.314911 134.572998,149.957001 
	C136.687225,150.855133 138.624512,152.169754 140.869034,153.917725 
	C141.616470,155.144638 142.120514,155.764984 142.658981,156.353836 
	C147.432251,161.573822 152.211624,166.788223 156.989197,172.004272 
	C150.307083,172.005402 143.624985,172.006531 136.475098,172.007812 
z"/>
<path fill="#8F51E0" opacity="1.000000" stroke="none" 
	d="
M157.456406,172.005493 
	C152.211624,166.788223 147.432251,161.573822 142.658981,156.353836 
	C142.120514,155.764984 141.616470,155.144638 141.074188,154.189636 
	C144.008041,152.542007 146.964188,151.243622 150.662598,149.950378 
	C151.936569,149.971146 152.468277,149.986801 153.000000,150.002457 
	C154.678375,152.180023 156.219025,154.482788 158.062317,156.510452 
	C162.610947,161.514069 167.298401,166.391479 171.959366,171.665817 
	C167.300323,172.010239 162.611969,172.008484 157.456406,172.005493 
z"/>
<path fill="#6C2AC3" opacity="1.000000" stroke="none" 
	d="
M245.912582,116.578949 
	C245.238251,118.014832 244.601700,119.112961 243.923248,120.541786 
	C243.481079,120.111473 242.721756,119.335426 242.752838,118.592453 
	C242.824921,116.869652 243.278961,115.162827 243.339569,113.200523 
	C244.260757,110.078300 245.898788,110.259483 247.844681,112.568497 
	C247.233429,114.029388 246.591888,115.135284 245.912582,116.578949 
z"/>
<path fill="#6C2AC3" opacity="1.000000" stroke="none" 
	d="
M238.868500,132.576782 
	C238.291718,132.486969 237.712219,132.101608 237.130432,131.421417 
	C237.707352,131.511459 238.286560,131.896347 238.868500,132.576782 
z"/>
<path fill="#7E3AD7" opacity="1.000000" stroke="none" 
	d="
M135.331436,111.765266 
	C133.721329,109.114761 132.849915,106.080811 131.075272,103.728165 
	C127.656158,99.195442 123.726318,95.047974 120.004364,90.377014 
	C124.024422,90.010902 128.048355,90.008537 132.535309,90.012291 
	C135.928162,93.441803 138.980591,96.769417 141.751846,100.316711 
	C144.297928,103.575760 146.541153,107.071419 148.853821,110.845184 
	C144.307617,108.361298 139.898605,107.574791 135.331436,111.765266 
z"/>
<path fill="#6C2AC3" opacity="1.000000" stroke="none" 
	d="
M237.001907,138.002197 
	C236.491882,137.701492 235.979965,137.398575 235.468033,137.095657 
	C235.649307,136.883652 235.830582,136.671646 236.011856,136.459641 
	C236.315018,136.784897 236.618179,137.110138 236.962830,137.719574 
	C237.004318,138.003769 237.000000,138.000000 237.001907,138.002197 
z"/>
<path fill="#8A52D3" opacity="1.000000" stroke="none" 
	d="
M137.091278,142.032211 
	C140.192886,145.294907 143.395187,145.606018 147.002548,142.690826 
	C148.510635,141.472107 150.422424,140.752945 152.553406,140.051773 
	C153.291138,141.120468 153.626144,141.944046 153.961151,142.767639 
	C150.972961,144.511871 147.984756,146.256119 144.222275,148.023743 
	C142.285110,148.036331 141.122223,148.025528 139.959351,148.014740 
	C138.801605,147.438797 137.643860,146.862854 136.108032,145.880859 
	C135.503082,145.230499 135.223618,145.093246 134.891556,145.063034 
	C134.891556,145.063034 134.988770,145.015686 134.981216,144.579834 
	C134.956680,138.032013 134.939697,131.920074 134.922714,125.808121 
	C138.844009,122.664749 142.587448,120.477211 147.652710,124.301369 
	C152.400574,127.885880 152.582794,135.000641 147.405563,137.882812 
	C145.720566,138.820847 143.961899,139.626602 142.162750,140.530106 
	C140.165176,133.693115 140.629486,131.921387 145.284973,127.742264 
	C142.342560,124.631424 140.024490,126.843727 137.071289,129.073456 
	C136.687210,133.710709 136.889252,137.871460 137.091278,142.032211 
z"/>
<path fill="#8048C9" opacity="1.000000" stroke="none" 
	d="
M154.306000,142.669952 
	C153.626144,141.944046 153.291138,141.120468 152.903564,139.959549 
	C157.316467,133.926254 155.493637,124.254799 149.325546,120.907860 
	C148.597702,120.512924 147.775467,120.219574 147.169785,119.683800 
	C143.668930,116.586960 140.270493,116.561584 136.703415,119.645676 
	C135.636154,120.568428 134.162201,121.020813 132.345764,121.934235 
	C131.548401,122.410370 131.279861,122.640991 131.011337,122.871613 
	C130.875580,122.973717 130.739807,123.075829 130.306549,122.919655 
	C129.316422,122.101982 128.623810,121.542603 127.931198,120.983215 
	C131.524979,118.699570 134.947739,116.039795 138.786301,114.294479 
	C140.644363,113.449654 143.283844,114.303436 145.566635,114.437691 
	C145.855713,114.454697 146.104263,114.847252 146.409912,114.941605 
	C156.800690,118.149094 160.143677,125.188591 158.464615,135.656998 
	C157.967606,138.755692 157.034149,140.871307 154.306000,142.669952 
z"/>
<path fill="#8D59CF" opacity="1.000000" stroke="none" 
	d="
M127.541962,121.112869 
	C128.623810,121.542603 129.316422,122.101982 130.075867,123.027908 
	C130.042526,123.781006 129.942337,124.167557 129.753403,124.843567 
	C129.331833,132.044510 128.999023,138.955994 128.664734,145.897903 
	C127.989471,145.286804 127.327255,144.687531 126.340889,144.032837 
	C125.997749,137.903137 125.900604,131.827408 126.014923,125.755630 
	C126.043373,124.244659 126.755081,122.746552 127.541962,121.112869 
z"/>
<path fill="#8D59CF" opacity="1.000000" stroke="none" 
	d="
M134.547913,126.056808 
	C134.939697,131.920074 134.956680,138.032013 134.944931,144.619904 
	C134.668518,138.832397 134.420822,132.568954 134.547913,126.056808 
z"/>
<path fill="#8D59CF" opacity="1.000000" stroke="none" 
	d="
M137.124344,141.566864 
	C136.889252,137.871460 136.687210,133.710709 136.811981,129.292206 
	C137.144974,133.056793 137.151184,137.079163 137.124344,141.566864 
z"/>
<path fill="#8648D7" opacity="1.000000" stroke="none" 
	d="
M153.249832,149.824692 
	C152.468277,149.986801 151.936569,149.971146 151.004700,149.924255 
	C151.498688,149.265793 152.392838,148.638550 153.612686,147.959290 
	C153.792145,148.487152 153.645905,149.067032 153.249832,149.824692 
z"/>
<path fill="#8D59CF" opacity="1.000000" stroke="none" 
	d="
M140.179779,148.298233 
	C141.122223,148.025528 142.285110,148.036331 143.887207,148.086044 
	C143.017685,148.277222 141.708954,148.429489 140.179779,148.298233 
z"/>
<path fill="#7E3AD7" opacity="1.000000" stroke="none" 
	d="
M150.143982,112.287613 
	C150.549866,112.220093 151.108643,112.404816 151.797592,112.866516 
	C151.384125,112.942268 150.840500,112.741058 150.143982,112.287613 
z"/>
<path fill="#7E3AD7" opacity="1.000000" stroke="none" 
	d="
M148.902466,111.399261 
	C149.115646,111.286896 149.422852,111.423096 149.847961,111.789337 
	C149.642731,111.895523 149.319626,111.771675 148.902466,111.399261 
z"/>
<path fill="#7E3AD7" opacity="1.000000" stroke="none" 
	d="
M151.970276,113.328018 
	C152.213943,113.104729 152.498505,113.233536 152.854889,113.683594 
	C152.675018,113.778458 152.369858,113.670212 151.970276,113.328018 
z"/>
<path fill="#8648D7" opacity="1.000000" stroke="none" 
	d="
M156.705353,146.083710 
	C156.716492,146.306000 156.438446,146.558319 155.872284,146.853027 
	C155.861496,146.634857 156.138840,146.374298 156.705353,146.083710 
z"/>
<path fill="#8D59CF" opacity="1.000000" stroke="none" 
	d="
M134.987976,145.292633 
	C135.223618,145.093246 135.503082,145.230499 135.853867,145.676605 
	C135.617661,145.916092 135.319870,145.797363 134.987976,145.292633 
z"/>
<path fill="#8D59CF" opacity="1.000000" stroke="none" 
	d="
M131.281265,122.849159 
	C131.279861,122.640991 131.548401,122.410370 132.090973,122.162819 
	C132.093735,122.372826 131.822464,122.599770 131.281265,122.849159 
z"/>
<path fill="#8648D7" opacity="1.000000" stroke="none" 
	d="
M154.730453,147.188049 
	C154.843323,147.450134 154.637497,147.671005 154.132797,147.888443 
	C153.976425,147.611450 154.169037,147.365387 154.730453,147.188049 
z"/>
</svg>